<svg xmlns="http://www.w3.org/2000/svg" viewBox="0 0 16 16" id="apple"><g fill="none" stroke="#000" stroke-linecap="round" stroke-linejoin="round" stroke-miterlimit="10"><path d="M10.062 2.935c.484-.631.85-1.524.718-2.435-.79.056-1.714.567-2.254 1.234-.491.604-.895 1.503-.737 2.375.864.027 1.756-.496 2.273-1.174z"></path><path d="M13.904 5.533c-.759-.963-1.826-1.521-2.833-1.521-1.33 0-1.893.644-2.817.644-.953 0-1.676-.642-2.826-.642-1.13 0-2.333.699-3.096 1.893-1.072 1.682-.889 4.844.849 7.537.621.964 1.452 2.047 2.538 2.057.966.01 1.239-.627 2.549-.634 1.31-.008 1.558.642 2.523.632 1.087-.009 1.963-1.209 2.585-2.173.446-.691.612-1.039.958-1.819-2.516-.969-2.919-4.586-.43-5.974z"></path></g></svg>